<svg id="visual" viewBox="0 0 960 540" width="960" height="540" xmlns="http://www.w3.org/2000/svg" xmlns:xlink="http://www.w3.org/1999/xlink" version="1.1"><rect x="0" y="0" width="960" height="540" fill="#021420"></rect><path d="M567 540L562.7 517.5C558.3 495 549.7 450 582.3 405C615 360 689 315 671.7 270C654.3 225 545.7 180 548.3 135C551 90 665 45 722 22.5L779 0L960 0L960 22.5C960 45 960 90 960 135C960 180 960 225 960 270C960 315 960 360 960 405C960 450 960 495 960 517.5L960 540Z" fill="#bcd7d1" stroke-linecap="round" stroke-linejoin="miter"></path></svg>