<?xml version="1.0" standalone="no"?>
<!DOCTYPE svg PUBLIC "-//W3C//DTD SVG 20010904//EN"
 "http://www.w3.org/TR/2001/REC-SVG-20010904/DTD/svg10.dtd">
<svg version="1.0" xmlns="http://www.w3.org/2000/svg"
 width="500.000000pt" height="500.000000pt" viewBox="0 0 500.000000 500.000000"
 preserveAspectRatio="xMidYMid meet">

<g transform="translate(0.000000,500.000000) scale(0.100000,-0.100000)"
fill="#000000" stroke="none">
<path d="M2285 4759 c-442 -41 -894 -229 -1230 -511 -106 -89 -270 -256 -341
-348 -703 -905 -628 -2184 176 -2991 196 -197 356 -312 610 -438 166 -82 278
-123 468 -171 235 -59 268 -60 1480 -60 l1102 0 181 121 c100 66 179 122 177
124 -1 1 -85 57 -186 124 l-182 121 -312 0 -312 0 74 67 c432 386 698 897 760
1462 18 156 7 491 -19 633 -86 465 -296 874 -615 1194 -61 61 -133 130 -160
152 l-49 42 287 0 286 0 180 120 c99 66 180 122 180 124 0 2 -82 58 -183 125
l-183 121 -1049 -1 c-578 -1 -1090 -5 -1140 -10z m-25 -1249 l0 -770 -769 0
-770 0 6 38 c2 20 15 82 28 137 152 651 674 1176 1321 1328 60 14 123 28 139
30 17 2 33 5 38 6 4 0 7 -345 7 -769z m670 730 c458 -111 862 -410 1107 -820
110 -184 207 -449 228 -622 l7 -58 -197 0 -197 0 -569 288 -569 287 0 482 0
482 38 -6 c20 -3 89 -18 152 -33z m-670 -2746 l0 -767 -52 7 c-187 25 -462
125 -638 234 -343 211 -618 542 -750 904 -31 83 -83 280 -93 351 l-6 37 770 0
769 0 0 -766z m2006 714 c-11 -82 -52 -237 -90 -335 -187 -490 -559 -862
-1049 -1049 -97 -37 -252 -78 -334 -89 l-53 -7 0 479 0 478 568 287 567 287
199 1 199 0 -7 -52z"/>
</g>
</svg>
